<?xml version="1.0" standalone="no"?><!DOCTYPE svg PUBLIC "-//W3C//DTD SVG 1.1//EN" "http://www.w3.org/Graphics/SVG/1.1/DTD/svg11.dtd"><svg t="1571224315629" class="icon" viewBox="0 0 1025 1024" version="1.1" xmlns="http://www.w3.org/2000/svg" p-id="5934" xmlns:xlink="http://www.w3.org/1999/xlink" width="200.1953125" height="200"><defs><style type="text/css"></style></defs><path d="M242.373 916.211 53.86 916.211 53.86 107.79l188.513 0c14.872 0 26.931-12.064 26.931-26.947s-12.059-26.947-26.931-26.947L26.926 53.896C12.056 53.895 0 65.959 0 80.842l0 862.316c0 14.88 12.056 26.947 26.926 26.947l215.447 0c14.872 0 26.931-12.067 26.931-26.95C269.304 928.272 257.245 916.211 242.373 916.211zM997.055 53.895 781.474 53.895c-14.88 0-26.947 12.064-26.947 26.947s12.067 26.947 26.947 26.947l188.632 0 0 808.421L781.474 916.21c-14.88 0-26.947 12.062-26.947 26.945 0 14.883 12.067 26.95 26.947 26.95l215.582 0c14.88 0 26.945-12.067 26.945-26.947L1024.001 80.842C1024 65.959 1011.936 53.895 997.055 53.895zM781.474 512.005c0-14.886-12.064-26.95-26.947-26.95L269.474 485.055c-14.883 0-26.947 12.064-26.947 26.95 0 14.883 12.064 26.945 26.947 26.945l485.053 0C769.409 538.95 781.474 526.888 781.474 512.005z" p-id="5935" fill="#ffffff"></path></svg>